<svg width="469" height="63" viewBox="0 0 469 63" fill="none" xmlns="http://www.w3.org/2000/svg">
<path fill-rule="evenodd" clip-rule="evenodd" d="M31.2205 0.954102C42.4346 0.954102 52.1414 6.92289 57.3867 15.7856H24.8899V1.49672C27.0604 1.13497 29.05 0.954102 31.2205 0.954102ZM59.738 20.6089C61.0041 24.0455 61.7276 27.6629 61.7276 31.6421C61.7276 48.5839 47.9813 62.3302 31.0396 62.3302C28.8691 62.3302 26.8795 62.1493 24.8899 61.7875V20.6089H59.738ZM20.0064 60.3406C8.49082 55.8188 0.351562 44.665 0.351562 31.6421C0.351562 27.6629 1.07505 24.0455 2.34116 20.6089H20.0064V60.3406ZM4.87337 15.7856C8.49082 9.99773 13.7361 5.47591 20.0667 2.9437V15.7856H4.87337Z" fill="#CB3F40"/>
<path d="M84.1993 11.0037C86.008 11.0037 87.455 9.55677 87.455 7.74804C87.455 5.93932 86.008 4.55263 84.1993 4.55263C82.5112 4.55263 81.0039 5.93932 81.0039 7.74804C81.0642 9.55677 82.5112 11.0037 84.1993 11.0037ZM81.848 46.8768H86.611V16.1888H81.848V46.8768ZM96.0766 54.7146C99.6941 58.2718 103.251 59.2967 108.497 59.2967C115.973 59.2967 123.087 56.1013 123.087 45.9724V16.1888H118.324V20.8312C115.852 17.4549 112.174 15.405 108.014 15.405C99.9352 15.405 94.3282 21.4944 94.3282 31.382C94.3282 41.2697 99.9955 47.2988 108.014 47.2988C112.355 47.2988 116.093 44.9475 118.324 41.8124V46.2136C118.324 52.9662 113.561 55.4381 108.497 55.4381C104.095 55.4381 101.081 54.2926 98.5485 51.2177L96.0766 54.7146ZM118.324 38.014C116.696 40.6668 112.958 43.0182 109.16 43.0182C103.01 43.0182 99.3323 38.0743 99.3323 31.3218C99.3323 24.5089 103.01 19.6253 109.16 19.6253C112.958 19.6253 116.636 21.9164 118.324 24.5692V38.014ZM132.613 46.8768H137.376V25.1721C138.763 22.7002 142.802 20.2885 145.696 20.2885C146.48 20.2885 147.022 20.3488 147.625 20.4694V15.5859C143.405 15.5859 139.848 17.9372 137.376 21.1929V16.2491H132.613V46.8768ZM151.846 31.5026C151.846 41.0889 158.417 47.6606 167.461 47.6606C172.465 47.6606 176.625 46.0327 179.64 42.9579L177.349 39.8228C174.937 42.2947 171.38 43.6814 167.883 43.6814C161.251 43.6814 157.212 38.8581 156.85 33.0702H181.69V31.8644C181.69 22.6399 176.203 15.405 166.918 15.405C158.176 15.405 151.846 22.5796 151.846 31.5026ZM166.858 19.3239C173.852 19.3239 176.927 24.9912 176.987 29.5733H156.85C157.091 24.8706 160.347 19.3239 166.858 19.3239ZM191.758 11.0037C193.567 11.0037 195.014 9.55677 195.014 7.74804C195.014 5.93932 193.567 4.55263 191.758 4.55263C190.07 4.55263 188.563 5.93932 188.563 7.74804C188.563 9.55677 190.07 11.0037 191.758 11.0037ZM194.17 16.1888H189.407V49.8913C189.407 53.7499 187.417 55.2572 184.644 55.2572C183.86 55.2572 183.016 55.1969 182.353 54.9558L181.69 58.935C182.715 59.2364 183.8 59.357 185.126 59.357C190.914 59.357 194.17 55.9204 194.17 49.8913V16.1888ZM222.868 46.8768H227.631V25.775C227.631 18.3592 222.205 15.405 215.754 15.405C210.75 15.405 206.771 17.0328 203.515 20.4694L205.746 23.7854C208.459 20.8914 211.473 19.5048 215.151 19.5048C219.613 19.5048 222.929 21.8561 222.929 26.0162V31.5629C220.457 28.7293 216.96 27.3426 212.739 27.3426C207.554 27.3426 202.008 30.5983 202.008 37.4714C202.008 44.1637 207.554 47.6606 212.739 47.6606C216.899 47.6606 220.336 46.2136 222.929 43.3799V46.8768H222.868ZM222.868 40.3654C220.999 42.8976 217.804 44.1637 214.428 44.1637C209.966 44.1637 206.891 41.3903 206.891 37.4714C206.891 33.5525 210.026 30.7188 214.428 30.7188C217.804 30.7188 221.06 31.985 222.868 34.5172V40.3654ZM257.234 46.8768H265.313V25.0515C265.313 19.0827 262.057 15.405 255.365 15.405C250.361 15.405 246.502 17.8166 244.573 20.168V4.49234H236.494V46.8768H244.573V26.197C245.96 24.328 248.432 22.5796 251.567 22.5796C255.064 22.5796 257.294 23.906 257.294 28.1866V46.8768H257.234ZM287.56 47.6003C297.749 47.6003 303.839 40.2448 303.839 31.4423C303.839 22.7605 297.749 15.3447 287.56 15.3447C277.431 15.3447 271.342 22.7002 271.342 31.4423C271.342 40.2448 277.431 47.6003 287.56 47.6003ZM287.56 40.4257C282.556 40.4257 279.722 36.2656 279.722 31.4423C279.722 26.6794 282.496 22.5193 287.56 22.5193C292.564 22.5193 295.458 26.6794 295.458 31.4423C295.398 36.3259 292.564 40.4257 287.56 40.4257ZM309.808 46.8768H317.887V4.49234H309.808V46.8768ZM329.884 11.6669C332.537 11.6669 334.708 9.49648 334.708 6.84368C334.708 4.19089 332.537 2.02042 329.884 2.02042C327.292 2.02042 325.061 4.19089 325.061 6.84368C325.061 9.49648 327.292 11.6669 329.884 11.6669ZM325.845 46.8768H333.924V16.1888H325.845V46.8768ZM362.683 46.8768H370.762V25.1721C370.762 19.2033 367.506 15.405 360.814 15.405C355.81 15.405 352.071 17.8166 350.082 20.168V16.1888H342.003V46.8768H350.082V26.197C351.408 24.328 353.88 22.5796 357.076 22.5796C360.512 22.5796 362.743 24.0266 362.743 28.3072V46.8768H362.683ZM376.791 31.5026C376.791 41.33 383.845 47.6606 393.19 47.6606C397.953 47.6606 402.776 46.2136 405.851 43.3799L402.294 38.1949C400.304 40.1242 396.928 41.2697 394.094 41.2697C388.909 41.2697 385.774 38.014 385.231 34.1554H408.021V32.3467C408.021 22.2781 401.811 15.4653 392.647 15.4653C383.302 15.405 376.791 22.5796 376.791 31.5026ZM392.647 21.7958C398.013 21.7958 400.003 25.6544 400.184 28.6087H385.051C385.473 25.5941 387.643 21.7958 392.647 21.7958ZM411.217 42.8373C414.473 45.8518 419.597 47.6003 424.963 47.6003C433.464 47.6003 438.227 43.3196 438.227 37.7729C438.227 30.1762 431.173 28.7293 425.928 27.7043C422.491 26.9808 420.08 26.3176 420.08 24.3883C420.08 22.5796 422.009 21.5546 424.903 21.5546C428.641 21.5546 432.138 23.1222 434.007 25.1118L437.262 19.565C434.188 17.1534 430.088 15.3447 424.843 15.3447C416.764 15.3447 412.242 19.8665 412.242 24.9912C412.242 32.2864 419.055 33.5525 424.3 34.5775C427.797 35.301 430.45 36.0244 430.45 38.1949C430.45 40.1242 428.822 41.33 425.325 41.33C421.527 41.33 416.944 39.2199 414.714 37.1097L411.217 42.8373ZM441.483 42.8373C444.739 45.8518 449.863 47.6003 455.229 47.6003C463.73 47.6003 468.493 43.3196 468.493 37.7729C468.493 30.1762 461.439 28.7293 456.133 27.7043C452.697 26.9808 450.285 26.3176 450.285 24.3883C450.285 22.5796 452.215 21.5546 455.109 21.5546C458.847 21.5546 462.343 23.1222 464.212 25.1118L467.468 19.565C464.393 17.1534 460.294 15.3447 455.048 15.3447C446.969 15.3447 442.447 19.8665 442.447 24.9912C442.447 32.2864 449.26 33.5525 454.506 34.5775C458.002 35.301 460.655 36.0244 460.655 38.1949C460.655 40.1242 459.027 41.33 455.531 41.33C451.732 41.33 447.15 39.2199 444.919 37.1097L441.483 42.8373Z" fill="black"/>
</svg>
