<svg width="469" height="63" viewBox="0 0 469 63" fill="none" xmlns="http://www.w3.org/2000/svg">
<path fill-rule="evenodd" clip-rule="evenodd" d="M31.0584 0.954102C42.2724 0.954102 51.9793 6.92289 57.2246 15.7856H24.7278V1.49672C26.8983 1.13497 28.8879 0.954102 31.0584 0.954102ZM59.5759 20.6089C60.842 24.0455 61.5655 27.6629 61.5655 31.6421C61.5655 48.5839 47.8192 62.3302 30.8775 62.3302C28.707 62.3302 26.7174 62.1493 24.7278 61.7875V20.6089H59.5759ZM19.8443 60.3406C8.32871 55.8188 0.189453 44.665 0.189453 31.6421C0.189453 27.6629 0.912943 24.0455 2.17905 20.6089H19.8443V60.3406ZM4.71127 15.7856C8.32871 9.99773 13.574 5.47591 19.9046 2.9437V15.7856H4.71127Z" fill="white"/>
<path d="M84.0372 11.0037C85.8459 11.0037 87.2929 9.55674 87.2929 7.74801C87.2929 5.93929 85.8459 4.5526 84.0372 4.5526C82.3491 4.5526 80.8418 5.93929 80.8418 7.74801C80.9021 9.55674 82.3491 11.0037 84.0372 11.0037ZM81.6859 46.8768H86.4488V16.1887H81.6859V46.8768ZM95.9145 54.7146C99.532 58.2717 103.089 59.2967 108.334 59.2967C115.81 59.2967 122.925 56.1013 122.925 45.9724V16.1887H118.162V20.8311C115.69 17.4548 112.012 15.4049 107.852 15.4049C99.7731 15.4049 94.1661 21.4943 94.1661 31.382C94.1661 41.2697 99.8334 47.2988 107.852 47.2988C112.193 47.2988 115.931 44.9475 118.162 41.8123V46.2136C118.162 52.9661 113.399 55.4381 108.334 55.4381C103.933 55.4381 100.919 54.2925 98.3864 51.2177L95.9145 54.7146ZM118.162 38.014C116.534 40.6668 112.796 43.0181 108.998 43.0181C102.848 43.0181 99.1702 38.0743 99.1702 31.3217C99.1702 24.5089 102.848 19.6253 108.998 19.6253C112.796 19.6253 116.474 21.9164 118.162 24.5692V38.014ZM132.451 46.8768H137.214V25.1721C138.6 22.7001 142.64 20.2885 145.534 20.2885C146.318 20.2885 146.86 20.3488 147.463 20.4694V15.5858C143.243 15.5858 139.686 17.9372 137.214 21.1929V16.249H132.451V46.8768ZM151.684 31.5026C151.684 41.0888 158.255 47.6605 167.299 47.6605C172.303 47.6605 176.463 46.0327 179.478 42.9579L177.187 39.8227C174.775 42.2947 171.218 43.6813 167.721 43.6813C161.089 43.6813 157.049 38.8581 156.688 33.0702H181.527V31.8643C181.527 22.6398 176.041 15.4049 166.756 15.4049C158.014 15.4049 151.684 22.5796 151.684 31.5026ZM166.696 19.3239C173.69 19.3239 176.765 24.9912 176.825 29.5733H156.688C156.929 24.8706 160.185 19.3239 166.696 19.3239ZM191.596 11.0037C193.405 11.0037 194.852 9.55674 194.852 7.74801C194.852 5.93929 193.405 4.5526 191.596 4.5526C189.908 4.5526 188.401 5.93929 188.401 7.74801C188.401 9.55674 189.908 11.0037 191.596 11.0037ZM194.008 16.1887H189.245V49.8913C189.245 53.7499 187.255 55.2572 184.482 55.2572C183.698 55.2572 182.854 55.1969 182.191 54.9557L181.527 58.9349C182.552 59.2364 183.638 59.357 184.964 59.357C190.752 59.357 194.008 55.9204 194.008 49.8913V16.1887ZM222.706 46.8768H227.469V25.775C227.469 18.3592 222.043 15.4049 215.592 15.4049C210.588 15.4049 206.608 17.0328 203.353 20.4694L205.584 23.7854C208.297 20.8914 211.311 19.5047 214.989 19.5047C219.45 19.5047 222.766 21.8561 222.766 26.0161V31.5629C220.294 28.7292 216.798 27.3425 212.577 27.3425C207.392 27.3425 201.845 30.5982 201.845 37.4714C201.845 44.1637 207.392 47.6605 212.577 47.6605C216.737 47.6605 220.174 46.2136 222.766 43.3799V46.8768H222.706ZM222.706 40.3653C220.837 42.8976 217.642 44.1637 214.265 44.1637C209.804 44.1637 206.729 41.3903 206.729 37.4714C206.729 33.5525 209.864 30.7188 214.265 30.7188C217.642 30.7188 220.897 31.9849 222.706 34.5171V40.3653ZM257.072 46.8768H265.151V25.0515C265.151 19.0827 261.895 15.4049 255.203 15.4049C250.199 15.4049 246.34 17.8166 244.411 20.1679V4.49231H236.332V46.8768H244.411V26.197C245.798 24.328 248.269 22.5796 251.405 22.5796C254.901 22.5796 257.132 23.906 257.132 28.1866V46.8768H257.072ZM287.398 47.6002C297.587 47.6002 303.677 40.2448 303.677 31.4423C303.677 22.7604 297.587 15.3447 287.398 15.3447C277.269 15.3447 271.18 22.7001 271.18 31.4423C271.18 40.2448 277.269 47.6002 287.398 47.6002ZM287.398 40.4256C282.394 40.4256 279.56 36.2656 279.56 31.4423C279.56 26.6793 282.334 22.5193 287.398 22.5193C292.402 22.5193 295.296 26.6793 295.296 31.4423C295.236 36.3259 292.402 40.4256 287.398 40.4256ZM309.646 46.8768H317.724V4.49231H309.646V46.8768ZM329.722 11.6669C332.375 11.6669 334.546 9.49645 334.546 6.84365C334.546 4.19086 332.375 2.02039 329.722 2.02039C327.13 2.02039 324.899 4.19086 324.899 6.84365C324.899 9.49645 327.13 11.6669 329.722 11.6669ZM325.683 46.8768H333.762V16.1887H325.683V46.8768ZM362.521 46.8768H370.6V25.1721C370.6 19.2033 367.344 15.4049 360.652 15.4049C355.647 15.4049 351.909 17.8166 349.92 20.1679V16.1887H341.841V46.8768H349.92V26.197C351.246 24.328 353.718 22.5796 356.914 22.5796C360.35 22.5796 362.581 24.0265 362.581 28.3072V46.8768H362.521ZM376.629 31.5026C376.629 41.33 383.683 47.6605 393.028 47.6605C397.791 47.6605 402.614 46.2136 405.689 43.3799L402.132 38.1949C400.142 40.1242 396.766 41.2697 393.932 41.2697C388.747 41.2697 385.612 38.014 385.069 34.1554H407.859V32.3467C407.859 22.2781 401.649 15.4652 392.485 15.4652C383.14 15.4049 376.629 22.5796 376.629 31.5026ZM392.485 21.7958C397.851 21.7958 399.841 25.6544 400.021 28.6086H384.888C385.31 25.5941 387.481 21.7958 392.485 21.7958ZM411.055 42.8373C414.31 45.8518 419.435 47.6002 424.801 47.6002C433.302 47.6002 438.065 43.3196 438.065 37.7728C438.065 30.1762 431.011 28.7292 425.766 27.7043C422.329 26.9808 419.917 26.3176 419.917 24.3883C419.917 22.5796 421.847 21.5546 424.741 21.5546C428.479 21.5546 431.976 23.1222 433.845 25.1118L437.1 19.565C434.026 17.1534 429.926 15.3447 424.68 15.3447C416.601 15.3447 412.08 19.8665 412.08 24.9912C412.08 32.2864 418.893 33.5525 424.138 34.5774C427.635 35.3009 430.287 36.0244 430.287 38.1949C430.287 40.1242 428.66 41.33 425.163 41.33C421.364 41.33 416.782 39.2198 414.552 37.1096L411.055 42.8373ZM441.321 42.8373C444.576 45.8518 449.701 47.6002 455.067 47.6002C463.568 47.6002 468.331 43.3196 468.331 37.7728C468.331 30.1762 461.277 28.7292 455.971 27.7043C452.535 26.9808 450.123 26.3176 450.123 24.3883C450.123 22.5796 452.052 21.5546 454.946 21.5546C458.684 21.5546 462.181 23.1222 464.05 25.1118L467.306 19.565C464.231 17.1534 460.131 15.3447 454.886 15.3447C446.807 15.3447 442.285 19.8665 442.285 24.9912C442.285 32.2864 449.098 33.5525 454.343 34.5774C457.84 35.3009 460.493 36.0244 460.493 38.1949C460.493 40.1242 458.865 41.33 455.368 41.33C451.57 41.33 446.988 39.2198 444.757 37.1096L441.321 42.8373Z" fill="white"/>
</svg>
